<?xml version="1.0" encoding="utf-8"?>
<!-- Generator: Adobe Illustrator 15.1.0, SVG Export Plug-In . SVG Version: 6.00 Build 0)  -->
<!DOCTYPE svg PUBLIC "-//W3C//DTD SVG 1.1//EN" "http://www.w3.org/Graphics/SVG/1.1/DTD/svg11.dtd">
<svg version="1.1" id="Layer_1" xmlns="http://www.w3.org/2000/svg" xmlns:xlink="http://www.w3.org/1999/xlink" x="0px" y="0px"
	 width="542px" height="88.5px" viewBox="0 0 542 88.5" enable-background="new 0 0 542 88.5" xml:space="preserve">
<g>
	<path fill="#010101" d="M407.664,76.426V48.603c0-14.411-8.346-22.299-25.149-22.299c-14.124,0-24.577,5.894-24.577,14.411
		c0,5.296,2.791,9.142,9.741,8.514c4.841-0.427,6.551-2.62,7.633-4.983c0.227-0.513,0.455-1.054,0.455-2.364
		c0-1.452-0.57-2.762-1.537-3.93c0,0,0,0-0.029-0.028c-0.028-0.03-0.058-0.086-0.113-0.172c-0.229-0.313-0.627-0.939-0.771-1.566
		c-0.026-0.143-0.056-0.313-0.056-0.456c-0.058-0.57-0.058-1.196,0.029-1.823c0.283-2.591,2.819-4.272,5.297-4.727
		c1.367-0.256,3.929-0.569,6.606,0.227c0.058,0,0.115,0.029,0.143,0.029c0,0,0.114,0.028,0.341,0.114
		c0.741,0.343,2.678,1.367,3.847,3.931c0.085,0.199,0.169,0.369,0.227,0.569c0.086,0.257,0.173,0.485,0.257,0.741
		c0.029,0.085,0.058,0.17,0.085,0.255c0.911,3.048,1.282,7.178,1.282,12.219v2.307c-10.68,1.964-36.652,7.233-36.652,22.813
		c0,8.398,8.145,15.404,20.05,14.324c5.012-0.455,13.186-2.847,16.603-7.889v4.869c0,0.825,2.191,1.966,3.447,1.881
		c8.285-0.314,7.347-0.314,15.548,0.085c0.825,0,1.964-2.278,1.964-3.532C412.332,80.472,407.664,80.897,407.664,76.426z
		 M391.373,61.447c0,7.063-5.811,17.372-12.702,17.372c-4.1,0-6.664-2.705-6.664-6.95c0-8.088,13.442-17.43,19.366-19.621V61.447z"
		/>
	<path fill="#010101" d="M78.576,10.987c-11.072,0.207-22.263,0.325-33.364,0.325c-11.072,0-22.173-0.118-33.364-0.325
		c-2.243-0.118-3.336,0.531-3.75,3.336c-0.235,1.388-2.272,14.083-2.272,14.939c0,0.975,2.362,2.037,3.661,2.037
		c2.037,0,8.297-18.068,20.667-18.068c2.923,0,4.223,0.767,4.223,2.362v60.556c0,4.635-6.91,4.311-6.91,5.935
		c0,1.269,1.063,3.66,1.919,3.66c4.311-0.236,9.478-0.324,14.763-0.324c5.256,0,10.541,0.088,14.732,0.324
		c0.857,0,2.038-2.392,2.038-3.66c0-1.624-6.999-1.3-6.999-5.935V15.593c0-2.688,1.299-2.362,3.455-2.362
		c15.382,0,17.332,18.068,19.369,18.068c1.299,0,3.662-1.18,3.662-2.037c0-0.856,1.623-14.113,1.623-16.387
		C82.029,10.957,80.731,10.869,78.576,10.987z"/>
	<path fill="#010101" d="M107.623,24.098c-16.9,0-29.596,14.536-29.596,30.688c0,16.12,12.696,32.022,29.596,32.022
		c16.898,0,29.857-15.902,29.857-32.022C137.48,38.634,124.521,24.098,107.623,24.098z M107.623,83.825
		c-5.115,0-10.408-14.67-10.408-29.056c0-14.416,5.292-27.741,10.408-27.741c5.145,0,10.886,13.325,10.886,27.741
		C118.509,69.155,112.768,83.825,107.623,83.825z"/>
	<path fill="#010101" d="M198.11,76.022V42.197c0-10.89-5.715-18.1-15.976-18.1c-4.249,0-12.676,4.128-18.242,9.035v-5.864
		c0-0.867-2.303-2.093-3.619-2.093c-1.735,0-6.38,4.039-17.509,5.145c-0.867,0.09-1.944,2.273-1.944,3.59
		c0,1.734,4.786,1.406,4.786,6.014v36.099c0,4.695-4.786,4.366-4.786,6.102c0,1.316,1.078,3.62,1.944,3.62
		c4.368-0.24,7.508-0.328,11.996-0.328c4.458,0,9.036,0.088,13.313,0.328c0.868,0,2.063-2.304,2.063-3.62
		c0-1.735-6.245-1.406-6.245-6.102V45.518c0-7.419,4.809-14.09,8.848-14.09c3.5,0,7.083,7.059,7.083,12.625v31.97
		c0,4.695-6.096,4.366-6.096,6.102c0,1.316,1.107,3.62,1.974,3.62c4.368-0.24,8.826-0.328,13.313-0.328
		c4.458,0,9.035,0.088,13.283,0.328c0.868,0,2.064-2.304,2.064-3.62C204.362,80.389,198.11,80.718,198.11,76.022z"/>
	<path fill="#010101" d="M352.641,26.306c-1.091,0.235-4.636,0.414-7.203,0.414c-2.686,0-5.284-0.089-6.348-0.326
		c-0.856-0.087-2.067,2.393-2.067,3.662c0,1.624,10.584,0.614,9.048,4.925l-11.917,38.217L322.407,35.99
		c-1.505-4.311,4.282-4.311,4.282-5.935c0-1.27-1.181-3.662-2.037-3.662c-4.193,0.237-2.489,0.326-7.213,0.326
		c-4.871,0-9.597-0.089-13.907-0.326c-0.944,0-2.036,2.393-2.036,3.662c0,1.624,3.778,1.624,5.283,5.935
		c1.831,7.322-6.752,27.122-10.414,36.718l-9.478-33.28c-1.505-4.311,5.898-7.749,5.898-9.373c0-1.27-1.181-3.662-2.037-3.662
		c-4.223,0.237-9.064,0.326-13.907,0.326c-4.842,0-5.631-0.089-9.942-0.326c-0.856,0-1.948,2.393-1.948,3.662
		c0,1.624,2.905,0.693,4.968,4.934l15.817,50.755c3.78-0.236,2.533-0.324,5.219-0.324c2.687,0,5.491,0.088,9.153,0.324
		c1.831-9.684,8.267-23.157,11.929-33.728l10.245,33.728c3.748-0.236,6.436-0.324,9.123-0.324c2.718,0-1.056,0.088,2.606,0.324
		l15.778-50.426c1.507-4.312,6.071-3.639,6.071-5.263C355.861,28.786,353.496,26.217,352.641,26.306z"/>
	<path fill="#010101" d="M527.818,75.923l-16.709-32.43l7.351-7.204c3.72-2.038,12.491-3.13,12.491-4.842
		c0-1.299-1.183-3.661-2.038-3.573c-2.157,0.235-6.143,0.324-10.01,0.324c-3.986,0-7.973-0.089-10.128-0.324
		c-0.856-0.088-2.361,2.273-2.361,3.573c0,1.712,5.256,3.012,1.92,6.023l-16.698,16.524V5.588c0-0.975-2.242-2.037-3.544-2.037
		c-1.712,0-6.215,3.957-17.197,5.049c-0.855,0.088-1.947,2.244-1.947,3.543c0,1.712,4.754,1.417,4.754,5.935v57.933
		c0,4.634-4.754,4.312-4.754,6.023c0,1.297,1.092,3.571,1.947,3.571c4.312-0.235,6.008-0.324,10.438-0.324
		c4.399,0,8.918,0.089,13.109,0.324c0.856,0,2.067-2.274,2.067-3.571c0-1.712-4.873-1.39-4.873-6.023V62.43l8.22-7.91l10.77,21.403
		c4.104,7.527,3.012,9.566,8.415,9.566c2.895,0,1.01-0.196,14.064,0.116c0.856,0,2.038-2.393,2.038-3.662
		C535.143,80.322,530.182,79.788,527.818,75.923z"/>
	<path fill="#010101" d="M465.552,74.199c-1.793,4.092-4.149,7.189-7.021,9.351c-2.871,2.162-6.652,3.214-11.313,3.214h-3.523
		c-5.033-0.031-9.638-1.052-13.815-3.071c-4.179-2.018-7.563-5.06-10.119-9.096c-2.559-4.006-4.525-10.547-4.525-16.571
		c0-6.424,1.967-15.463,4.525-19.556c2.557-4.094,5.94-7.135,10.119-9.096c4.178-1.99,8.782-2.957,13.815-2.957
		c2.927,0.114,6.225,0.597,9.18,1.421c0,0,0.313,0.057,0.823,0.228c0.229,0.084,0.457,0.142,0.684,0.228
		c0.027,0,0.058,0.028,0.085,0.028c2.786,1.08,8.472,4.178,10.46,12.336v0.029c0.085,0.653,0.085,1.307,0.029,1.933v0.057
		c0,0.284-0.056,0.569-0.113,0.854c-0.058,0.312-0.115,0.625-0.229,0.938c-0.087,0.284-0.171,0.54-0.282,0.768
		c-0.115,0.256-0.23,0.512-0.373,0.71c-0.142,0.228-0.255,0.427-0.426,0.626c-0.595,0.739-1.336,1.364-2.215,1.847
		c-1.225,0.683-3.271,1.081-4.833,1.081c-4.291,0-7.788-2.956-7.788-6.652c0-1.676,0.738-3.24,1.961-4.376
		c0.027-0.029,0.085-0.085,0.113-0.114c0.626-0.653,1.194-1.307,1.564-1.875c0,0,0.056-0.086,0.142-0.256
		c0.143-0.256,0.284-0.683,0.312-1.279v-0.086c-0.143-2.103-1.165-3.353-2.388-4.348c-1.479-1.222-3.883-1.996-6.129-1.741
		c0,0-0.227,0-0.597,0.085c0,0,0,0-0.026,0c-0.399,0.085-0.968,0.256-1.594,0.597c-0.227,0.114-0.455,0.228-0.683,0.371
		c-0.938,0.596-2.018,1.478-3.041,2.898c-0.142,0.228-0.313,0.484-0.454,0.739c-0.739,1.166-1.177,2.765-1.745,4.555
		c-0.058,0.199-0.113,0.426-0.199,0.654c-0.085,0.284-0.143,0.568-0.227,0.881c-1.252,5.315-2.083,15.122-1.401,20.524
		c1.394,9.663,5.294,16.882,12.829,18.645c2.159,0.541,4.66,0.541,7.416-0.027c2.787-0.541,5.574-2.388,8.358-5.515L465.552,74.199z
		"/>
	<g>
		<path fill="#010101" d="M262.283,30.348c0,0.294-0.297,0.473-0.828,0.65c-1.742,0.649-5.787,1.033-8.238,3.336
			c-0.058,0.03-0.088,0.059-0.147,0.117c-0.059,0.061-0.117,0.089-0.148,0.148c-0.087,0.088-0.59,0.738-0.59,0.738l-11.662,16.8
			c-0.148,0.235-0.237,0.502-0.237,0.797v19.985c0.031,0.324,0.06,0.737,0.089,1.238c0.236,2.777,0.768,3.839,1.594,5.078
			c0.768,1.123,1.447,1.891,2.097,2.215c0.059,0.029,0.117,0.06,0.177,0.089c0.886,0.235,1.505,1.063,1.505,2.038
			c0,1.181-0.945,2.155-2.125,2.155c-0.03,0-0.03,0-0.059,0h-24.506c-1.181,0-2.125-0.975-2.125-2.155
			c0-1.034,0.708-1.919,1.683-2.127c0.029,0,0.029,0,0.029,0c0.65-0.324,1.388-1.062,2.156-2.215
			c0.827-1.239,1.358-2.301,1.595-5.078c0.029-0.501,0.029-0.914,0.029-1.238V56.833c0-0.237-0.088-0.503-0.206-0.738L212.03,39.235
			v-0.029c-0.03-0.059-0.089-0.119-0.118-0.177c-0.472-0.797-0.945-1.536-1.447-2.185c-2.982-3.868-6.289-5.02-7.145-5.255
			c-0.088-0.03-0.178-0.03-0.208-0.06c-0.028,0-0.028,0-0.028,0c-0.591-0.088-1.182-0.177-1.24-0.206
			c-1.005-0.472-0.797-1.034-0.797-2.332c0-0.651,0.324-1.418,0.708-1.861c0.472-0.531,0.768-0.827,1.506-0.827l11.633,0.708h0.118
			l4.753-0.177c2.097-0.06,4.164-0.147,6.112-0.236c0.206-0.03,0.443-0.03,0.649-0.03c0.415-0.03,0.827-0.061,1.241-0.089
			c0.856,0,2.037,2.393,2.037,3.661c0,0.501-0.679,1.152-1.595,1.978h-0.029v0.03c-0.03,0-0.089,0.06-0.119,0.089
			c-0.353,0.354-1.24,1.534-0.383,3.661c0.088,0.236,0.207,0.472,0.324,0.708c0.03,0.03,0.03,0.059,0.059,0.088l8.2,13.199
			c0.531,0.856,1.253,0.843,1.814,0.016l9.684-13.877c0.088-0.148,0.65-1.003,0.856-1.328c0,0,0.03-0.03,0.06-0.088
			c0.088-0.148,0.148-0.296,0.236-0.414c0.944-2.008-0.536-2.615-1.599-3.029c-0.324-0.088-0.532-0.148-0.532-0.148
			c-1.181-0.648-0.916-1.949-0.916-1.949c0.178-1.15-0.235-2.125,0.828-2.39c0.207-0.088,0.414-0.118,0.649-0.118l5.315,0.266
			c0.295,0.029,0.62,0.029,0.974,0.029c0.532,0,1.092,0,1.595-0.029c1.742-0.031,3.306-0.177,4.281-0.326h0.088
			c0.177-0.029,0.325-0.059,0.472-0.087c0.178-0.03,0.384,0.059,0.561,0.207c0.03,0.03,0.03,0.03,0.03,0.03
			c0.62,0.532,1.211,1.742,1.476,2.775C262.223,29.758,262.283,30.083,262.283,30.348z"/>
	</g>
</g>
</svg>
